HIERARCHY
ROOT Hips
{
	OFFSET 0.000000 97.167313 0.000000
	CHANNELS 6 Xposition Yposition Zposition Xrotation Yrotation Zrotation
	JOINT Spine
	{
		OFFSET 0.000000 13.784798 0.064400
		CHANNELS 3 Xrotation Yrotation Zrotation
		JOINT Spine1
		{
			OFFSET 0.000000 12.037903 0.404700
			CHANNELS 3 Xrotation Yrotation Zrotation
			JOINT Spine2
			{
				OFFSET 0.000000 17.795601 0.420200
				CHANNELS 3 Xrotation Yrotation Zrotation
				JOINT Neck
				{
					OFFSET 0.000000 39.131302 11.954600
					CHANNELS 3 Xrotation Yrotation Zrotation
					JOINT Head
					{
						OFFSET 0.000000 14.456192 15.627699
						CHANNELS 3 Xrotation Yrotation Zrotation
						JOINT HeadTop_End
						{
							OFFSET 0.000000 15.703506 7.603401
							CHANNELS 3 Xrotation Yrotation Zrotation
							End Site
							{
								OFFSET 0.000000 17.447403 0.000000
							}
						}
					}
				}
				JOINT LeftShoulder
				{
					OFFSET 17.399500 24.608795 1.168800
					CHANNELS 3 Xrotation Yrotation Zrotation
					JOINT LeftArm
					{
						OFFSET 18.980635 5.765305 1.818600
						CHANNELS 3 Xrotation Yrotation Zrotation
						JOINT LeftForeArm
						{
							OFFSET 49.290169 0.000000 0.000000
							CHANNELS 3 Xrotation Yrotation Zrotation
							JOINT LeftHand
							{
								OFFSET 31.562012 0.000000 0.000000
								CHANNELS 3 Xrotation Yrotation Zrotation
								JOINT LeftHandThumb1
								{
									OFFSET 6.133995 -4.388519 7.076070
									CHANNELS 3 Xrotation Yrotation Zrotation
									JOINT LeftHandThumb2
									{
										OFFSET 6.037666 -3.485840 3.485847
										CHANNELS 3 Xrotation Yrotation Zrotation
										JOINT LeftHandThumb3
										{
											OFFSET 6.496506 -3.750763 3.750761
											CHANNELS 3 Xrotation Yrotation Zrotation
											JOINT LeftHandThumb4
											{
												OFFSET 5.616882 -3.242905 3.242910
												CHANNELS 3 Xrotation Yrotation Zrotation
												End Site
												{
													OFFSET -1.254608 7.132141 0.375429
												}
											}
										}
									}
								}
								JOINT LeftHandPinky1
								{
									OFFSET 18.920792 -0.453171 -11.426712
									CHANNELS 3 Xrotation Yrotation Zrotation
									JOINT LeftHandPinky2
									{
										OFFSET 4.919586 0.000000 0.000000
										CHANNELS 3 Xrotation Yrotation Zrotation
										JOINT LeftHandPinky3
										{
											OFFSET 5.233047 0.000000 0.000000
											CHANNELS 3 Xrotation Yrotation Zrotation
											JOINT LeftHandPinky4
											{
												OFFSET 5.571716 0.000000 0.000000
												CHANNELS 3 Xrotation Yrotation Zrotation
												End Site
												{
													OFFSET -3.459808 4.342407 -0.466164
												}
											}
										}
									}
								}
								JOINT LeftHandRing1
								{
									OFFSET 22.726120 -0.094986 -6.500475
									CHANNELS 3 Xrotation Yrotation Zrotation
									JOINT LeftHandRing2
									{
										OFFSET 6.408615 0.000000 0.000000
										CHANNELS 3 Xrotation Yrotation Zrotation
										JOINT LeftHandRing3
										{
											OFFSET 6.150223 0.000000 0.000000
											CHANNELS 3 Xrotation Yrotation Zrotation
											JOINT LeftHandRing4
											{
												OFFSET 6.145386 0.000000 0.000000
												CHANNELS 3 Xrotation Yrotation Zrotation
												End Site
												{
													OFFSET -3.671402 4.923981 -0.202372
												}
											}
										}
									}
								}
								JOINT LeftHandMiddle1
								{
									OFFSET 23.373947 0.000000 0.000001
									CHANNELS 3 Xrotation Yrotation Zrotation
									JOINT LeftHandMiddle2
									{
										OFFSET 6.996567 0.000000 0.000000
										CHANNELS 3 Xrotation Yrotation Zrotation
										JOINT LeftHandMiddle3
										{
											OFFSET 7.015945 0.000000 0.000000
											CHANNELS 3 Xrotation Yrotation Zrotation
											JOINT LeftHandMiddle4
											{
												OFFSET 7.721573 0.000000 0.000000
												CHANNELS 3 Xrotation Yrotation Zrotation
												End Site
												{
													OFFSET -4.651108 6.158463 0.251582
												}
											}
										}
									}
								}
								JOINT LeftHandIndex1
								{
									OFFSET 21.310577 -0.490082 6.209344
									CHANNELS 3 Xrotation Yrotation Zrotation
									JOINT LeftHandIndex2
									{
										OFFSET 7.536453 0.000000 0.000000
										CHANNELS 3 Xrotation Yrotation Zrotation
										JOINT LeftHandIndex3
										{
											OFFSET 7.512344 0.000000 0.000000
											CHANNELS 3 Xrotation Yrotation Zrotation
											JOINT LeftHandIndex4
											{
												OFFSET 10.212402 0.000000 0.000001
												CHANNELS 3 Xrotation Yrotation Zrotation
												End Site
												{
													OFFSET -5.180801 8.690506 1.388433
												}
											}
										}
									}
								}
							}
						}
					}
				}
				JOINT RightShoulder
				{
					OFFSET -17.399500 24.608795 1.168800
					CHANNELS 3 Xrotation Yrotation Zrotation
					JOINT RightArm
					{
						OFFSET -18.980635 5.765305 1.818600
						CHANNELS 3 Xrotation Yrotation Zrotation
						JOINT RightForeArm
						{
							OFFSET -49.290169 0.000000 0.000000
							CHANNELS 3 Xrotation Yrotation Zrotation
							JOINT RightHand
							{
								OFFSET -31.562012 0.000000 0.000000
								CHANNELS 3 Xrotation Yrotation Zrotation
								JOINT RightHandThumb1
								{
									OFFSET -6.133995 -4.388519 7.076070
									CHANNELS 3 Xrotation Yrotation Zrotation
									JOINT RightHandThumb2
									{
										OFFSET -6.037666 -3.485840 3.485847
										CHANNELS 3 Xrotation Yrotation Zrotation
										JOINT RightHandThumb3
										{
											OFFSET -6.496506 -3.750763 3.750761
											CHANNELS 3 Xrotation Yrotation Zrotation
											JOINT RightHandThumb4
											{
												OFFSET -5.616882 -3.242905 3.242910
												CHANNELS 3 Xrotation Yrotation Zrotation
												End Site
												{
													OFFSET 1.254608 7.132141 0.375429
												}
											}
										}
									}
								}
								JOINT RightHandIndex1
								{
									OFFSET -21.310577 -0.490082 6.209344
									CHANNELS 3 Xrotation Yrotation Zrotation
									JOINT RightHandIndex2
									{
										OFFSET -7.536453 0.000000 0.000000
										CHANNELS 3 Xrotation Yrotation Zrotation
										JOINT RightHandIndex3
										{
											OFFSET -7.512344 0.000000 0.000000
											CHANNELS 3 Xrotation Yrotation Zrotation
											JOINT RightHandIndex4
											{
												OFFSET -10.212402 0.000000 0.000001
												CHANNELS 3 Xrotation Yrotation Zrotation
												End Site
												{
													OFFSET 5.180801 8.690506 1.388433
												}
											}
										}
									}
								}
								JOINT RightHandMiddle1
								{
									OFFSET -23.373947 0.000000 0.000001
									CHANNELS 3 Xrotation Yrotation Zrotation
									JOINT RightHandMiddle2
									{
										OFFSET -6.996567 0.000000 0.000000
										CHANNELS 3 Xrotation Yrotation Zrotation
										JOINT RightHandMiddle3
										{
											OFFSET -7.015945 0.000000 0.000000
											CHANNELS 3 Xrotation Yrotation Zrotation
											JOINT RightHandMiddle4
											{
												OFFSET -7.721573 0.000000 0.000000
												CHANNELS 3 Xrotation Yrotation Zrotation
												End Site
												{
													OFFSET 4.651108 6.158463 0.251582
												}
											}
										}
									}
								}
								JOINT RightHandRing1
								{
									OFFSET -22.726120 -0.094986 -6.500475
									CHANNELS 3 Xrotation Yrotation Zrotation
									JOINT RightHandRing2
									{
										OFFSET -6.408615 0.000000 0.000000
										CHANNELS 3 Xrotation Yrotation Zrotation
										JOINT RightHandRing3
										{
											OFFSET -6.150223 0.000000 0.000000
											CHANNELS 3 Xrotation Yrotation Zrotation
											JOINT RightHandRing4
											{
												OFFSET -6.145386 0.000000 0.000000
												CHANNELS 3 Xrotation Yrotation Zrotation
												End Site
												{
													OFFSET 3.671402 4.923981 -0.202372
												}
											}
										}
									}
								}
								JOINT RightHandPinky1
								{
									OFFSET -18.920792 -0.453171 -11.426712
									CHANNELS 3 Xrotation Yrotation Zrotation
									JOINT RightHandPinky2
									{
										OFFSET -4.919586 0.000000 0.000000
										CHANNELS 3 Xrotation Yrotation Zrotation
										JOINT RightHandPinky3
										{
											OFFSET -5.233047 0.000000 0.000000
											CHANNELS 3 Xrotation Yrotation Zrotation
											JOINT RightHandPinky4
											{
												OFFSET -5.571716 0.000000 0.000000
												CHANNELS 3 Xrotation Yrotation Zrotation
												End Site
												{
													OFFSET 3.459808 4.342407 -0.466164
												}
											}
										}
									}
								}
							}
						}
					}
				}
			}
		}
	}
	JOINT LeftUpLeg
	{
		OFFSET 19.899099 -7.885101 -3.429500
		CHANNELS 3 Xrotation Yrotation Zrotation
		JOINT LeftLeg
		{
			OFFSET 1.745560 -36.997807 10.304700
			CHANNELS 3 Xrotation Yrotation Zrotation
			JOINT LeftFoot
			{
				OFFSET -1.745558 -29.803308 -13.615400
				CHANNELS 3 Xrotation Yrotation Zrotation
				JOINT LeftToeBase
				{
					OFFSET 1.181900 -18.539904 15.226099
					CHANNELS 3 Xrotation Yrotation Zrotation
					JOINT LeftToe_End
					{
						OFFSET -0.863701 1.402801 16.534700
						CHANNELS 3 Xrotation Yrotation Zrotation
						End Site
						{
							OFFSET 0.000000 16.616566 0.000000
						}
					}
				}
			}
		}
	}
	JOINT RightUpLeg
	{
		OFFSET -19.899099 -7.885101 -3.429500
		CHANNELS 3 Xrotation Yrotation Zrotation
		JOINT RightLeg
		{
			OFFSET -1.745560 -36.997807 10.304700
			CHANNELS 3 Xrotation Yrotation Zrotation
			JOINT RightFoot
			{
				OFFSET 1.745558 -29.803308 -13.615400
				CHANNELS 3 Xrotation Yrotation Zrotation
				JOINT RightToeBase
				{
					OFFSET -1.181900 -18.539904 15.226099
					CHANNELS 3 Xrotation Yrotation Zrotation
					JOINT RightToe_End
					{
						OFFSET 0.863701 1.402801 16.534700
						CHANNELS 3 Xrotation Yrotation Zrotation
						End Site
						{
							OFFSET 0.000000 16.616566 0.000000
						}
					}
				}
			}
		}
	}
}
MOTION
Frames: 4
Frame Time: 0.033333
-0.003345 93.014763 3.226849 3.816329 -3.714015 -0.354596 0.168726 0.332841 0.184900 0.511369 0.555629 -0.149995 0.508119 0.557001 -0.156049 -12.568405 -1.447527 2.637433 10.197547 3.163033 -2.584843 -0.000000 -0.000000 0.000000 1.604994 -11.385831 -9.553344 4.329745 -15.662800 -64.423027 -0.000005 -12.874984 -0.000048 1.693016 -1.937939 -8.457181 0.699764 -6.020126 19.223921 19.074673 26.512426 -1.026340 3.271086 -0.981147 3.963638 0.000003 -0.000001 -0.000004 3.603258 12.761699 -45.581281 0.673752 2.729589 -27.725802 0.090006 1.024038 -10.045309 0.000002 0.000001 0.000001 3.090051 8.505091 -34.940348 1.098180 3.416380 -35.630273 0.533258 2.443992 -24.613765 0.000001 -0.000004 -0.000000 2.486438 8.732159 -25.419640 1.496302 3.911581 -41.853985 0.476275 2.315664 -23.241532 0.000001 -0.000003 0.000008 0.460229 4.491393 -23.662331 0.883080 3.094857 -31.844179 0.339543 1.967239 -19.583699 -0.000002 0.000001 -0.000001 2.087502 14.855921 10.815233 -4.515514 3.403577 66.314600 -0.000000 7.533707 0.000008 10.827183 0.054047 8.057248 -13.495574 -11.552038 -5.371118 13.666579 -20.582674 -6.820325 3.162467 -4.141723 -22.215043 -0.000003 -0.000005 -0.000001 0.246052 -3.262776 18.902296 0.589432 -2.269662 29.112643 0.172151 -1.255809 15.610698 -0.000000 0.000000 0.000002 -0.702541 -1.215800 21.259787 0.924240 -2.786653 36.691868 0.558014 -2.212356 28.309421 -0.000000 0.000002 -0.000004 -0.941538 -2.664823 38.529254 0.358958 -1.794609 22.620036 0.313730 -1.682013 21.129354 -0.000000 0.000000 -0.000007 -2.260391 -1.124636 39.408160 0.612405 -2.310403 29.687578 0.130092 -1.094183 13.559643 -0.000002 -0.000002 -0.000001 -8.391537 12.061204 13.854114 11.404882 3.013518 1.229778 -5.642986 2.739878 -13.316350 0.033798 0.000020 -0.063781 -0.000000 -0.000002 0.000000 -11.631886 -7.863885 -11.527861 9.740460 2.736355 -2.253354 -1.868030 -1.890923 13.109271 -0.000051 0.000005 -0.000004 -0.000000 -0.000000 0.000000 
-0.006773 93.013397 3.226799 3.766286 -3.672607 -0.306243 0.164488 0.298363 0.107398 0.511122 0.532995 -0.169022 0.508023 0.534406 -0.175022 -12.456205 -1.436443 2.647415 10.130333 3.187339 -2.589161 -0.000000 -0.000000 0.000000 1.612024 -11.352066 -9.508110 4.362327 -15.664156 -64.419237 -0.000008 -12.960993 -0.000011 1.726585 -1.947150 -8.465188 0.701223 -6.018331 19.218925 19.072159 26.511871 -1.018798 3.268820 -0.987645 3.974114 0.000000 0.000001 -0.000001 3.601017 12.759635 -45.579556 0.673460 2.729027 -27.719648 0.089926 1.023610 -10.041014 0.000001 -0.000002 -0.000001 3.089814 8.504619 -34.941725 1.097755 3.415799 -35.623241 0.533019 2.443475 -24.608156 -0.000001 -0.000005 -0.000000 2.486530 8.731941 -25.422099 1.495789 3.911005 -41.846452 0.476060 2.315166 -23.236160 0.000001 0.000001 0.000007 0.460346 4.491665 -23.664927 0.882721 3.094288 -31.837632 0.339366 1.966744 -19.578490 0.000002 0.000006 0.000000 2.088785 14.849103 10.829731 -4.559941 3.451991 66.304212 -0.000005 7.371907 0.000024 10.859155 0.132803 8.060729 -13.497182 -11.554005 -5.365780 13.667934 -20.584664 -6.810638 3.164659 -4.151398 -22.205129 -0.000001 -0.000001 0.000001 0.245626 -3.271263 18.924864 0.589992 -2.270684 29.127082 0.172215 -1.256038 15.613700 0.000001 -0.000001 -0.000002 -0.702860 -1.219185 21.289235 0.924973 -2.787636 36.706926 0.558253 -2.212797 28.315562 -0.000000 0.000002 -0.000004 -0.942135 -2.667576 38.567927 0.359298 -1.795431 22.631034 0.313882 -1.682389 21.134426 -0.000003 0.000001 -0.000003 -2.261540 -1.130545 39.442092 0.612955 -2.311374 29.701341 0.130228 -1.094774 13.567057 -0.000001 -0.000000 0.000002 -8.308811 12.090157 13.877870 11.245522 3.005528 1.154148 -5.516368 2.670135 -13.455291 0.031626 0.000026 -0.059668 -0.000000 -0.000000 -0.000000 -11.606831 -7.889623 -11.601349 9.821452 2.729750 -2.260146 -1.931899 -1.886231 13.124938 -0.001575 0.000000 0.000001 -0.000000 0.000000 -0.000000 
-0.023495 92.941216 3.260473 3.709876 -3.555293 -0.192550 0.147088 0.204395 -0.073078 0.505419 0.471673 -0.219193 0.502702 0.473200 -0.225074 -12.156788 -1.424118 2.687934 9.879297 3.197540 -2.567324 0.000000 0.000000 0.000000 1.625920 -11.321226 -9.442491 4.478632 -15.632047 -64.362908 0.000008 -13.207795 0.000010 1.742864 -1.979961 -8.497690 0.705550 -6.012992 19.203917 19.064627 26.510314 -0.996316 3.262115 -1.006955 4.005140 -0.000001 0.000001 -0.000002 3.594313 12.753479 -45.574407 0.672583 2.727375 -27.701255 0.089705 1.022303 -10.028233 -0.000003 -0.000002 -0.000001 3.089118 8.503219 -34.945778 1.096498 3.414057 -35.602306 0.532310 2.441904 -24.591498 0.000001 -0.000000 0.000005 2.486828 8.731290 -25.429423 1.494250 3.909290 -41.824008 0.475408 2.313661 -23.220160 0.000000 0.000003 0.000007 0.460672 4.492470 -23.672681 0.881666 3.092578 -31.818040 0.338851 1.965255 -19.562999 -0.000000 0.000001 0.000001 2.099850 14.774521 10.891483 -4.684395 3.589329 66.292976 0.000003 6.926573 -0.000019 10.932735 0.311964 8.094923 -13.501886 -11.559750 -5.350123 13.671923 -20.590495 -6.782254 3.171124 -4.179784 -22.176137 0.000001 -0.000001 -0.000000 0.244415 -3.296079 18.991030 0.591664 -2.273685 29.169221 0.172416 -1.256725 15.622497 0.000000 -0.000003 -0.000001 -0.703805 -1.229042 21.375516 0.927119 -2.790512 36.751001 0.558947 -2.214092 28.333522 -0.000001 0.000001 -0.000006 -0.943896 -2.675594 38.681144 0.360308 -1.797843 22.663235 0.314317 -1.683531 21.149221 -0.000001 0.000001 0.000000 -2.264958 -1.147913 39.541440 0.614578 -2.314215 29.741550 0.130658 -1.096491 13.588814 0.000001 0.000000 0.000001 -8.286317 12.205427 13.976305 11.223031 2.977876 0.873514 -5.485053 2.424712 -13.522087 0.022464 0.000024 -0.042345 -0.000000 0.000001 0.000000 -11.684107 -7.930036 -11.793087 10.256255 2.715771 -2.257262 -2.242457 -1.917898 13.146759 -0.006197 -0.000001 0.000002 -0.000000 -0.000001 -0.000000 
-0.007993 92.839836 3.327668 3.662560 -3.313760 -0.060425 0.107822 0.035330 -0.310698 0.488067 0.363317 -0.289241 0.486050 0.365038 -0.295040 -11.678736 -1.416504 2.732790 9.453449 3.118600 -2.518358 -0.000000 0.000000 0.000000 1.638489 -11.393806 -9.411307 4.715802 -15.517281 -64.209939 -0.000000 -13.651228 -0.000013 1.675258 -2.019279 -8.542870 0.712674 -6.004106 19.179154 19.052302 26.507710 -0.959399 3.251197 -1.038789 4.056116 0.000001 0.000002 0.000000 3.583204 12.743313 -45.565742 0.671138 2.724604 -27.670925 0.089326 1.020191 -10.007132 -0.000000 0.000001 -0.000004 3.087945 8.500899 -34.952284 1.094452 3.411197 -35.567718 0.531136 2.439350 -24.563978 0.000001 -0.000002 0.000001 2.487294 8.730221 -25.441423 1.491725 3.906485 -41.786930 0.474352 2.311187 -23.193769 -0.000001 -0.000003 0.000004 0.461182 4.493787 -23.685424 0.879932 3.089782 -31.785757 0.337961 1.962777 -19.537363 -0.000005 0.000001 0.000001 2.130200 14.593669 10.962831 -4.871624 3.780595 66.293065 -0.000002 6.323279 0.000010 11.056571 0.521037 8.134866 -13.509483 -11.569067 -5.324768 13.678363 -20.599929 -6.736287 3.181598 -4.225793 -22.129203 -0.000001 0.000001 -0.000001 0.242560 -3.336278 19.098235 0.594384 -2.278532 29.237496 0.172722 -1.257836 15.636765 0.000001 -0.000001 -0.000002 -0.705287 -1.245034 21.515277 0.930599 -2.795158 36.822475 0.560076 -2.216171 28.362651 0.000002 0.000000 -0.000001 -0.946732 -2.688589 38.864610 0.361942 -1.801759 22.715389 0.315020 -1.685343 21.173226 0.000002 0.000001 -0.000005 -2.270479 -1.176103 39.702387 0.617211 -2.318805 29.806754 0.131323 -1.099292 13.624016 -0.000002 -0.000001 0.000000 -8.332968 12.364685 14.031041 11.240107 2.566229 0.503294 -5.472995 2.388762 -13.476456 0.007203 0.000000 -0.013589 -0.000000 0.000002 0.000000 -11.746741 -7.994452 -12.060897 10.798014 2.646229 -2.247293 -2.671080 -1.980154 13.208728 -0.013713 0.000000 0.000001 -0.000000 0.000000 0.000000 
